<?xml version="1.0" encoding="utf-8"?>
<!-- Generator: Adobe Illustrator 23.0.2, SVG Export Plug-In . SVG Version: 6.00 Build 0)  -->
<svg version="1.1" id="icon-desktop" xmlns="http://www.w3.org/2000/svg" xmlns:xlink="http://www.w3.org/1999/xlink" x="0px"
	 y="0px" viewBox="0 0 24 24" style="enable-background:new 0 0 24 24;" xml:space="preserve">
<style type="text/css">
	.st0{fill:none;}
</style>
<rect id="_x3C_icon-BG_x3E__3_" class="st0" width="24" height="24"/>
<path id="_x3C_path_x3E_" d="M7.5,20h9c0.3,0,0.5,0.2,0.5,0.5S16.8,21,16.5,21h-9C7.2,21,7,20.8,7,20.5S7.2,20,7.5,20z M2,3h20
	c0.6,0,1,0.4,1,1v13c0,0.6-0.4,1-1,1H2c-0.6,0-1-0.4-1-1V4C1,3.4,1.4,3,2,3z M2,4v13h20V4H2z"/>
</svg>
