<?xml version="1.0" encoding="utf-8"?>
<!-- Generator: Adobe Illustrator 23.0.2, SVG Export Plug-In . SVG Version: 6.00 Build 0)  -->
<svg version="1.1" id="icon-mobile" xmlns="http://www.w3.org/2000/svg" xmlns:xlink="http://www.w3.org/1999/xlink" x="0px"
	 y="0px" viewBox="0 0 24 24" style="enable-background:new 0 0 24 24;" xml:space="preserve">
<style type="text/css">
	.st0{fill:none;}
</style>
<rect id="_x3C_icon-BG_x3E__5_" class="st0" width="24" height="24"/>
<path id="_x3C_path_x3E_" d="M12,18c0.3,0,0.5,0.2,0.5,0.5S12.3,19,12,19c-0.3,0-0.5-0.2-0.5-0.5S11.7,18,12,18z M7,2h10
	c0.6,0,1,0.4,1,1v18c0,0.6-0.4,1-1,1H7c-0.6,0-1-0.4-1-1V3C6,2.4,6.4,2,7,2z M7,3v18h10V3H7z"/>
</svg>
