<?xml version="1.0" encoding="utf-8"?>
<!-- Generator: Adobe Illustrator 23.0.2, SVG Export Plug-In . SVG Version: 6.00 Build 0)  -->
<svg version="1.1" id="icon-user" xmlns="http://www.w3.org/2000/svg" xmlns:xlink="http://www.w3.org/1999/xlink" x="0px" y="0px"
	 viewBox="0 0 24 24" style="enable-background:new 0 0 24 24;" xml:space="preserve">
<style type="text/css">
	.st0{fill:none;}
</style>
<rect id="_x3C_icon-BG_x3E__6_" class="st0" width="24" height="24"/>
<path id="_x3C_path_x3E__8_" d="M23,20.8V24h-1v-3.2c0-2.7-2.1-4.8-4.8-4.8H6.7C4.1,16,2,18.2,2,20.8V24H1v-3.2
	C1,17.6,3.6,15,6.7,15h10.5C20.4,15,23,17.6,23,20.8z M12,1C9.5,1,7.5,3,7.5,5.5S9.5,10,12,10s4.5-2,4.5-4.5S14.5,1,12,1 M12,0
	c3,0,5.5,2.5,5.5,5.5S15,11,12,11S6.5,8.5,6.5,5.5S9,0,12,0L12,0z"/>
</svg>
