<?xml version="1.0" encoding="utf-8"?>
<!-- Generator: Adobe Illustrator 23.0.2, SVG Export Plug-In . SVG Version: 6.00 Build 0)  -->
<svg version="1.1" id="Layer_1" xmlns="http://www.w3.org/2000/svg" xmlns:xlink="http://www.w3.org/1999/xlink" x="0px" y="0px"
	 viewBox="0 0 16 16" style="enable-background:new 0 0 16 16;" xml:space="preserve">
<style type="text/css">
	.st0{fill:none;}
</style>
<g id="icon-eye">
	<rect id="_x3C_icon-BG_x3E__15_" class="st0" width="16" height="16"/>
	<path id="_x3C_path_x3E__9_" d="M7.969699,9.0303c0.552285,0,1-0.447715,1-1s-0.447715-1-1-1s-1,0.447715-1,1
		S7.417414,9.0303,7.969699,9.0303z M7.969699,10.0303c-1.104569,0-2-0.895432-2-2s0.895431-2,2-2s2,0.895431,2,2
		S9.074268,10.0303,7.969699,10.0303z M2.052785,7.776394c0.070284-0.140568,0.202197-0.37508,0.394381-0.672656
		C2.765249,6.611224,3.140562,6.11901,3.57273,5.65803c1.257923-1.341784,2.737368-2.158029,4.427269-2.158029
		s3.169346,0.816245,4.42727,2.158029c0.43217,0.46098,0.80748,0.953194,1.12556,1.445708
		c0.19219,0.297576,0.3241,0.532088,0.394381,0.672656c0.07039,0.140764,0.07039,0.30645,0,0.447214
		c-0.07028,0.140568-0.20219,0.37508-0.394381,0.672656c-0.31808,0.492514-0.69339,0.984728-1.12556,1.445708
		c-1.257924,1.341784-2.73737,2.15803-4.42727,2.15803s-3.169346-0.816245-4.427269-2.15803
		c-0.432168-0.46098-0.807481-0.953195-1.125563-1.445708C2.254982,8.598688,2.123069,8.364176,2.052785,8.223608
		C1.982403,8.082844,1.982403,7.917158,2.052785,7.776394z M3.287206,8.353738
		C3.574593,8.798724,3.914123,9.24401,4.302268,9.658031c1.085827,1.158216,2.325132,1.84197,3.697731,1.84197
		s2.611905-0.683755,3.697731-1.84197c0.388149-0.414021,0.727679-0.859306,1.015059-1.304293
		c0.087541-0.135533,0.160171-0.254858,0.21757-0.353737c-0.0574-0.098879-0.13003-0.218203-0.21757-0.353737
		c-0.287379-0.444986-0.626909-0.890272-1.015059-1.304292C10.611904,5.183757,9.372599,4.500002,8,4.500002
		S5.388095,5.183756,4.302268,6.341972c-0.388145,0.41402-0.727675,0.859306-1.015062,1.304292
		C3.199673,7.781798,3.127038,7.901122,3.06964,8.000001C3.127038,8.09888,3.199673,8.218204,3.287206,8.353738z"/>
</g>
</svg>
