<?xml version="1.0" encoding="utf-8"?>
<!-- Generator: Adobe Illustrator 23.0.2, SVG Export Plug-In . SVG Version: 6.00 Build 0)  -->
<svg version="1.1" id="Layer_1" xmlns="http://www.w3.org/2000/svg" xmlns:xlink="http://www.w3.org/1999/xlink" x="0px" y="0px"
	 viewBox="0 0 16 16" style="enable-background:new 0 0 16 16;" xml:space="preserve">
<style type="text/css">
	.st0{fill:none;}
</style>
<rect id="_x3C_icon-BG_x3E__14_" class="st0" width="16" height="16"/>
<path id="_x3C_path_x3E__2_" d="M10.2,10.9l0.7,0.7C10,12.2,9,12.5,8,12.5c-1.7,0-3.2-0.8-4.4-2.2c-0.4-0.5-0.8-1-1.1-1.4
	C2.3,8.6,2.1,8.4,2.1,8.2C2,8.1,2,7.9,2.1,7.8c0.6-1.1,1.3-2,2.2-2.8L5,5.7C4.2,6.4,3.6,7.1,3.1,8c0.1,0.1,0.1,0.2,0.2,0.4
	c0.3,0.4,0.6,0.9,1,1.3c1.1,1.2,2.3,1.8,3.7,1.8C8.8,11.5,9.5,11.3,10.2,10.9z M7.5,10C8,10.1,8.6,10,9,9.7L8.3,9
	C8.1,9,7.9,9.1,7.7,9C7.4,8.9,7.1,8.6,7,8.3c0-0.2,0-0.4,0-0.5L6.3,7C6,7.4,5.9,8,6,8.5C6.2,9.2,6.8,9.8,7.5,10z M13.9,7.8
	c-0.1-0.1-0.2-0.4-0.4-0.7c-0.3-0.5-0.7-1-1.1-1.4C11.2,4.3,9.7,3.5,8,3.5c-0.4,0-0.8,0-1.2,0.1C6.6,3.7,6.4,4,6.5,4.2
	c0.1,0.3,0.3,0.4,0.6,0.4C7.4,4.5,7.7,4.5,8,4.5c1.4,0,2.6,0.7,3.7,1.8c0.4,0.4,0.7,0.9,1,1.3c0.1,0.1,0.2,0.3,0.2,0.4
	c-0.3,0.5-0.6,0.9-0.9,1.3c-0.2,0.2-0.2,0.5,0.1,0.7s0.5,0.2,0.7-0.1c0.4-0.5,0.8-1.1,1.1-1.7C14,8.1,14,7.9,13.9,7.8z"/>
<path id="_x3C_cut_x3E_" d="M13.5,14c-0.1,0-0.3,0-0.4-0.1l-11-11c-0.2-0.2-0.2-0.5,0-0.7s0.5-0.2,0.7,0l11,11
	c0.2,0.2,0.2,0.5,0,0.7C13.7,14,13.6,14,13.5,14z"/>
</svg>
