<svg xmlns="http://www.w3.org/2000/svg" viewBox="0 0 48 48"><path fill="none" d="M0 0h48v48H0z"/><path d="M38.818 40h-.883v-4H41v.78h-2.182v.83h1.922v.832h-1.922V40zm-1.662-2.026c0 1.143-.883 2.026-2.13 2.026h-1.558v-4h1.558c1.299 0 2.13.831 2.13 1.974zm-.883 0c0-.675-.52-1.195-1.247-1.195h-.675v2.39h.727c.727 0 1.195-.468 1.195-1.195zm-3.429-.571c0 .935-.727 1.402-1.61 1.402h-.676V40h-.883v-4h1.61c.988 0 1.56.571 1.56 1.403zm-.883 0c0-.416-.312-.624-.727-.624h-.624v1.247h.676c.415 0 .675-.26.675-.623zM45 33v10h-4v4a1 1 0 0 1-1 1H7a1 1 0 0 1-1-1V1a1 1 0 0 1 1-1h24v.001L31.001 0l10 10H41v23h4zM31 10h8.587L31 1.413V10zm9 33H26V33h14V11H30V1H7v46h33v-4zm4-9H27v8h17v-8zM13 22v1h14v-1H13zm0 5h14v-1H13v1zm6-14h1v-3h-3v1h2v2zm-5-2h2v-1h-3v3h1v-2zm5 5h-2v1h3v-3h-1v2zm-3 0h-2v-2h-1v3h3v-1zm0-2h1v-1h-1v1z"/></svg>