<svg xmlns="http://www.w3.org/2000/svg" viewBox="0 0 16 16"><g id="icon-edit"><path id="_x3C_icon-BG_x3E__13_" fill="none" d="M0 0h16v16H0z"/><path id="_x3C_path_x3E_" d="M14 7h1v5.062A2.94 2.94 0 0 1 12.062 15H3.938A2.94 2.94 0 0 1 1 12.062V3.938A2.94 2.94 0 0 1 3.938 1H9v1H3.938A1.94 1.94 0 0 0 2 3.938v8.125A1.94 1.94 0 0 0 3.938 14h8.125A1.94 1.94 0 0 0 14 12.062V7zm1.77-4.549c0 .132-.053.26-.146.354L8.516 9.916a.5.5 0 0 1-.354.146h-1.72a.5.5 0 0 1-.5-.5l-.001-1.72c0-.133.053-.26.146-.354L13.194.377a.5.5 0 0 1 .707 0l1.721 1.72a.497.497 0 0 1 .148.354zm-1.208 0l-1.014-1.013-6.607 6.611.001 1.013h1.013l6.607-6.611z"/></g></svg>