<?xml version="1.0" encoding="utf-8"?>
<!-- Generator: Adobe Illustrator 23.0.2, SVG Export Plug-In . SVG Version: 6.00 Build 0)  -->
<svg version="1.1" id="icon-camera" xmlns="http://www.w3.org/2000/svg" xmlns:xlink="http://www.w3.org/1999/xlink" x="0px"
	 y="0px" viewBox="0 0 24 24" style="enable-background:new 0 0 24 24;" xml:space="preserve">
<style type="text/css">
	.st0{fill:none;}
</style>
<rect id="_x3C_icon-BG_x3E__9_" class="st0" width="24" height="24"/>
<path id="_x3C_path_x3E__4_" d="M23,6v1h-3v3h-1V7h-3V6h3V3h1v3H23z M22,17.5c0,0.8-0.7,1.5-1.5,1.5h-17C2.7,19,2,18.3,2,17.5v-9
	C2,7.7,2.7,7,3.5,7h2.1C6,7,6.4,6.8,6.6,6.6l2.4-2.4C9.2,4.1,9.3,4,9.4,4H14V3H9.4C9,3,8.6,3.2,8.4,3.4L5.9,5.9C5.8,5.9,5.7,6,5.6,6
	H3.5C2.1,6,1,7.1,1,8.5v9C1,18.9,2.1,20,3.5,20h17c1.4,0,2.5-1.1,2.5-2.5V11h-1V17.5z M12,8c2.5,0,4.5,2,4.5,4.5S14.5,17,12,17
	s-4.5-2-4.5-4.5S9.5,8,12,8z M12,9c-1.9,0-3.5,1.6-3.5,3.5S10.1,16,12,16s3.5-1.6,3.5-3.5S13.9,9,12,9z"/>
</svg>
