<svg xmlns="http://www.w3.org/2000/svg" viewBox="0 0 20 20"><path d="M1.1 8.5c-.7 4.6 2 8.7 6 10 .4.1.6-.2.6-.4v-1.7c-2.5.5-3-1.1-3-1.1-.4-1-1-1.3-1-1.3-.8-.6.1-.5.1-.5.9.1 1.4.9 1.4.9.8 1.4 2.1 1 2.6.7.1-.6.3-1 .6-1.2-2-.2-4.1-1-4.1-4.4 0-1 .4-1.8.9-2.4-.1-.2-.4-1.1.1-2.4 0 0 .8-.2 2.5.9.7-.1 1.4-.2 2.2-.2s1.5.1 2.3.3c1.7-1.2 2.5-.9 2.5-.9.5 1.2.2 2.2.1 2.4.6.6.9 1.4.9 2.4 0 3.5-2.1 4.2-4.1 4.4.3.3.6.8.6 1.7v2.5c0 .2.2.5.6.4C16.4 17.3 19 14 19 10 19 4.5 14.1.2 8.5 1.1c-3.8.6-6.8 3.6-7.4 7.4" fill-rule="evenodd" clip-rule="evenodd"/></svg>