<?xml version="1.0" encoding="utf-8"?>
<!-- Generator: Adobe Illustrator 23.0.2, SVG Export Plug-In . SVG Version: 6.00 Build 0)  -->
<svg version="1.1" id="icon-close" xmlns="http://www.w3.org/2000/svg" xmlns:xlink="http://www.w3.org/1999/xlink" x="0px" y="0px"
	 viewBox="0 0 24 24" style="enable-background:new 0 0 24 24;" xml:space="preserve">
<style type="text/css">
	.st0{fill:none;}
</style>
<rect id="_x3C_icon-BG_x3E__9_" class="st0" width="24" height="24"/>
<path id="_x3C_path_x3E__4_" d="M12,11.3l9.1-9.1c0.2-0.2,0.5-0.2,0.7,0s0.2,0.5,0,0.7L12.7,12l9.1,9.1c0.2,0.2,0.2,0.5,0,0.7
	s-0.5,0.2-0.7,0L12,12.7l-9.1,9.1c-0.2,0.2-0.5,0.2-0.7,0s-0.2-0.5,0-0.7l9.1-9.1L2.1,2.9C2,2.7,2,2.3,2.1,2.1C2.3,2,2.7,2,2.9,2.1
	L12,11.3z"/>
</svg>