<?xml version="1.0" encoding="utf-8"?>
<!-- Generator: Adobe Illustrator 23.0.2, SVG Export Plug-In . SVG Version: 6.00 Build 0)  -->
<svg version="1.1" id="icon-eye" xmlns="http://www.w3.org/2000/svg" xmlns:xlink="http://www.w3.org/1999/xlink" x="0px" y="0px"
	 viewBox="0 0 16 16" style="enable-background:new 0 0 16 16;" xml:space="preserve">
<style type="text/css">
	.st0{fill:none;}
</style>
<rect id="_x3C_icon-BG_x3E__15_" class="st0" width="16" height="16"/>
<path id="_x3C_path_x3E__9_" d="M8,9c0.6,0,1-0.4,1-1S8.5,7,8,7S7,7.5,7,8S7.4,9,8,9z M8,10c-1.1,0-2-0.9-2-2s0.9-2,2-2s2,0.9,2,2
	S9.1,10,8,10z M2.1,7.8c0.1-0.1,0.2-0.4,0.4-0.7c0.3-0.5,0.7-1,1.1-1.4C4.8,4.3,6.3,3.5,8,3.5s3.2,0.8,4.4,2.2
	c0.4,0.5,0.8,1,1.1,1.4c0.2,0.3,0.3,0.5,0.4,0.7s0.1,0.3,0,0.4s-0.2,0.4-0.4,0.7c-0.3,0.5-0.7,1-1.1,1.4c-1.3,1.3-2.7,2.2-4.4,2.2
	s-3.2-0.8-4.4-2.2c-0.4-0.5-0.8-1-1.1-1.4C2.3,8.6,2.1,8.4,2.1,8.2C2,8.1,2,7.9,2.1,7.8z M3.3,8.4c0.3,0.4,0.6,0.9,1,1.3
	c1.1,1.2,2.3,1.8,3.7,1.8s2.6-0.7,3.7-1.8c0.4-0.4,0.7-0.9,1-1.3c0.1-0.1,0.2-0.3,0.2-0.4c-0.1-0.1-0.1-0.2-0.2-0.4
	c-0.3-0.4-0.6-0.9-1-1.3C10.6,5.2,9.4,4.5,8,4.5S5.4,5.2,4.3,6.3c-0.4,0.4-0.7,0.9-1,1.3C3.2,7.8,3.1,7.9,3.1,8
	C3.1,8.1,3.2,8.2,3.3,8.4z"/>
</svg>
