<?xml version="1.0" encoding="utf-8"?>
<!-- Generator: Adobe Illustrator 23.0.2, SVG Export Plug-In . SVG Version: 6.00 Build 0)  -->
<svg version="1.1" id="icon-laptop" xmlns="http://www.w3.org/2000/svg" xmlns:xlink="http://www.w3.org/1999/xlink" x="0px"
	 y="0px" viewBox="0 0 24 24" style="enable-background:new 0 0 24 24;" xml:space="preserve">
<style type="text/css">
	.st0{fill:none;}
</style>
<rect id="_x3C_icon-BG_x3E_" class="st0" width="24" height="24"/>
<path id="_x3C_path_x3E_" d="M23.5,18H22V6c0-0.6-0.4-1-1-1H3C2.4,5,2,5.4,2,6v12H0.5C0.2,18,0,18.2,0,18.5S0.2,19,0.5,19h23
	c0.3,0,0.5-0.2,0.5-0.5S23.8,18,23.5,18z M3,18V6h18v12H3z M12.5,7.5C12.5,7.8,12.3,8,12,8c-0.3,0-0.5-0.2-0.5-0.5S11.7,7,12,7
	C12.3,7,12.5,7.2,12.5,7.5z"/>
</svg>
