<?xml version="1.0" encoding="utf-8"?>
<!-- Generator: Adobe Illustrator 23.0.2, SVG Export Plug-In . SVG Version: 6.00 Build 0)  -->
<svg version="1.1" id="icon-tablet" xmlns="http://www.w3.org/2000/svg" xmlns:xlink="http://www.w3.org/1999/xlink" x="0px"
	 y="0px" viewBox="0 0 24 24" style="enable-background:new 0 0 24 24;" xml:space="preserve">
<style type="text/css">
	.st0{fill:none;}
</style>
<rect id="_x3C_icon-BG_x3E__4_" class="st0" width="24" height="24"/>
<path id="_x3C_path_x3E_" d="M20,11c0.3,0,0.5,0.2,0.5,0.5S20.3,12,20,12c-0.3,0-0.5-0.2-0.5-0.5S19.7,11,20,11z M2,3h20
	c0.6,0,1,0.4,1,1v15c0,0.6-0.4,1-1,1H2c-0.6,0-1-0.4-1-1V4C1,3.4,1.4,3,2,3z M2,4v15h20V4H2z"/>
</svg>
