<?xml version="1.0" encoding="utf-8"?>
<!-- Generator: Adobe Illustrator 23.0.2, SVG Export Plug-In . SVG Version: 6.00 Build 0)  -->
<svg version="1.1" id="icon-settings" xmlns="http://www.w3.org/2000/svg" xmlns:xlink="http://www.w3.org/1999/xlink" x="0px"
	 y="0px" viewBox="0 0 24 24" style="enable-background:new 0 0 24 24;" xml:space="preserve">
<style type="text/css">
	.st0{fill:none;}
</style>
<rect id="_x3C_icon-BG_x3E__21_" class="st0" width="24" height="24"/>
<path id="_x3C_path_x3E__23_" d="M12,7.9c2.3,0,4.1,1.9,4.1,4.1s-1.9,4.1-4.1,4.1S7.9,14.3,7.9,12S9.7,7.9,12,7.9z M12,6.9
	c-2.8,0-5.1,2.3-5.1,5.1c0,2.8,2.3,5.1,5.1,5.1c2.8,0,5.1-2.3,5.1-5.1C17.1,9.2,14.8,6.9,12,6.9z M9.7,0h4.6l0.5,3
	c0.5,0.2,1,0.4,1.5,0.6l2.5-1.7l3.2,3.2l-1.7,2.5c0.3,0.5,0.5,1,0.6,1.5l3,0.5v4.6l-3,0.6c-0.2,0.5-0.4,1-0.6,1.5l1.7,2.5l-3.2,3.2
	l-2.5-1.7c-0.5,0.3-1,0.5-1.5,0.6l-0.5,3H9.7l-0.5-3c-0.5-0.2-1-0.4-1.5-0.6l-2.5,1.7l-3.2-3.2l1.8-2.5c-0.3-0.5-0.5-1-0.6-1.5
	l-3-0.5V9.7l3-0.5c0.2-0.5,0.4-1,0.6-1.5L1.9,5.1l3.2-3.2l2.5,1.7c0.5-0.3,1-0.5,1.5-0.6L9.7,0z M10,3.8L9.5,4
	C9,4.1,8.5,4.3,8.1,4.5L7.6,4.8L5.2,3.2L3.2,5.3l1.6,2.3L4.5,8.1C4.3,8.5,4.1,9,4,9.5L3.8,10L1,10.5v2.9L3.8,14L4,14.5
	c0.1,0.4,0.3,0.9,0.6,1.4l0.3,0.5l-1.6,2.3l2.1,2.1l2.3-1.6l0.5,0.3C8.5,19.7,9,19.9,9.5,20l0.6,0.2l0.5,2.8h2.9l0.5-2.8l0.6-0.2
	c0.5-0.1,0.9-0.3,1.4-0.6l0.5-0.3l2.3,1.6l2.1-2.1l-1.6-2.3l0.3-0.5c0.2-0.4,0.4-0.9,0.6-1.4l0.2-0.6l2.8-0.5v-2.9L20.2,10L20,9.5
	c-0.1-0.5-0.3-0.9-0.6-1.4l-0.3-0.5l1.6-2.3l-2.1-2.1l-2.3,1.6l-0.5-0.3C15.5,4.3,15,4.1,14.5,4L14,3.8L13.5,1h-2.9L10,3.8z"/>
</svg>
