<svg xmlns="http://www.w3.org/2000/svg" viewBox="0 0 48 48"><path fill="none" d="M0 0h48v48H0z"/><path d="M27 23H13v-1h14v1zm0 3H13v1h14v-1zm19.254-3.095L41 28.159V47a1 1 0 0 1-1 1H7a1 1 0 0 1-1-1V1a1 1 0 0 1 1-1h24v.001L31.001 0l10 10H41v9.673l1.01-1.01a.993.993 0 0 1 .708-.294h.002c.266 0 .517.105.706.294l2.828 2.827c.19.19.293.44.293.708a.993.993 0 0 1-.293.707zM25.269 37.032l-1.03 3.646 3.644-1.032-2.614-2.614zm3.428 2.015L43.02 24.726l-2.829-2.829-14.32 14.321 2.827 2.829zM31 10h8.587L31 1.413V10zm9 19.159L28.697 40.46l-.072-.073.022.08-5.858 1.659 1.656-5.86.081.023-.07-.072L40 20.673V11H30V1H7v46h33V29.159zm5.547-6.962l-2.83-2.828-1.82 1.82 2.829 2.83 1.82-1.822zM13 42h8v-1h-8v1z"/></svg>