<?xml version="1.0" encoding="utf-8"?>
<!-- Generator: Adobe Illustrator 23.0.2, SVG Export Plug-In . SVG Version: 6.00 Build 0)  -->
<svg version="1.1" id="icon-entity" xmlns="http://www.w3.org/2000/svg" xmlns:xlink="http://www.w3.org/1999/xlink" x="0px"
	 y="0px" viewBox="0 0 24 24" style="enable-background:new 0 0 24 24;" xml:space="preserve">
<style type="text/css">
	.st0{fill:none;}
</style>
<rect id="_x3C_icon-BG_x3E__7_" class="st0" width="24" height="24"/>
<path id="_x3C_path_x3E__5_" d="M24.1,23h-5.1V9.7L16,10.5V23h-5L10.9,8.2l-2-0.6V23h-9V7.5l5.8-2l2.2,0.7V2.8l6-2.1l6,2.1v5.8
	l4,1.2L24.1,23z M19.9,22h3.1L23,10.6l-3.1-0.9V22z M12,22h3V9.8l3.9-1.2V3.6l-5-1.7l-5,1.7v3l3,0.9L12,22z M0.9,22h7V7.2L5.7,6.5
	L0.9,8.2V22z"/>
</svg>
