<?xml version="1.0" encoding="utf-8"?>
<!-- Generator: Adobe Illustrator 23.0.2, SVG Export Plug-In . SVG Version: 6.00 Build 0)  -->
<svg version="1.1" id="icon-warning" xmlns="http://www.w3.org/2000/svg" xmlns:xlink="http://www.w3.org/1999/xlink" x="0px"
	 y="0px" viewBox="0 0 24 24" style="enable-background:new 0 0 24 24;" xml:space="preserve">
<style type="text/css">
	.st0{fill:none;}
</style>
<rect id="_x3C_icon-BG_x3E__2_" class="st0" width="24" height="24"/>
<path id="_x3C_path_x3E_" d="M12,20.1c-0.9,0-1.4-0.6-1.4-1.4c0-0.9,0.6-1.4,1.4-1.4c0.8,0,1.4,0.6,1.4,1.4
	C13.3,19.7,12.9,20.1,12,20.1z M11.2,7.5h1.4v7.1h-1.4V7.5z M23.9,20.7L13.3,2.5c-0.6-1.1-2-1.1-2.6,0L0.2,20.7
	C-0.4,21.8,0.4,23,1.4,23h21.1C23.7,23,24.3,21.8,23.9,20.7z"/>
</svg>
