<?xml version="1.0" encoding="utf-8"?>
<!-- Generator: Adobe Illustrator 23.0.2, SVG Export Plug-In . SVG Version: 6.00 Build 0)  -->
<svg version="1.1" id="icon-help" xmlns="http://www.w3.org/2000/svg" xmlns:xlink="http://www.w3.org/1999/xlink" x="0px" y="0px"
	 viewBox="0 0 24 24" style="enable-background:new 0 0 24 24;" xml:space="preserve">
<style type="text/css">
	.st0{fill:none;}
</style>
<rect id="_x3C_icon-BG_x3E__9_" class="st0" width="24" height="24"/>
<path id="_x3C_path_x3E__4_" d="M12,0C5.4,0,0,5.4,0,12c0,6.6,5.4,12,12,12s12-5.4,12-12C24,5.4,18.6,0,12,0z M12,23
	C5.9,23,1,18.1,1,12S5.9,1,12,1s11,4.9,11,11S18.1,23,12,23z M15.6,8.7c0,1.9-1.3,3.3-3.2,3.5v2h-1v-3H12c1.2,0,2.7-0.7,2.7-2.5
	c0-0.2-0.1-2-2.2-2c-1.8,0-2.3,1.3-2.5,1.8L9,8.2c0.2-0.6,0.8-2.6,3.4-2.6C14.6,5.7,15.6,7.2,15.6,8.7z M12.8,16.5
	c0,0.4-0.3,0.8-0.8,0.8c-0.4,0-0.7-0.3-0.7-0.8c0-0.4,0.3-0.8,0.8-0.8C12.4,15.7,12.8,16.1,12.8,16.5z"/>
</svg>
