<?xml version="1.0" encoding="utf-8"?>
<!-- Generator: Adobe Illustrator 23.0.2, SVG Export Plug-In . SVG Version: 6.00 Build 0)  -->
<svg version="1.1" id="icon-other" xmlns="http://www.w3.org/2000/svg" xmlns:xlink="http://www.w3.org/1999/xlink" x="0px" y="0px"
	 viewBox="0 0 24 24" style="enable-background:new 0 0 24 24;" xml:space="preserve">
<style type="text/css">
	.st0{fill:none;}
</style>
<rect id="_x3C_icon-BG_x3E__8_" class="st0" width="24" height="24"/>
<path id="_x3C_path_x3E__6_" d="M11.5,15C10.1,15,9,13.9,9,12.5s1.1-2.5,2.5-2.5s2.5,1.1,2.5,2.5S12.9,15,11.5,15z M11.5,11
	c-0.8,0-1.5,0.7-1.5,1.5s0.7,1.5,1.5,1.5s1.5-0.7,1.5-1.5S12.3,11,11.5,11z M20.5,15c-1.4,0-2.5-1.1-2.5-2.5s1.1-2.5,2.5-2.5
	s2.5,1.1,2.5,2.5S21.9,15,20.5,15z M20.5,11c-0.8,0-1.5,0.7-1.5,1.5s0.7,1.5,1.5,1.5s1.5-0.7,1.5-1.5S21.3,11,20.5,11z M2.5,15
	C1.1,15,0,13.9,0,12.5S1.1,10,2.5,10S5,11.1,5,12.5S3.9,15,2.5,15z M2.5,11C1.7,11,1,11.7,1,12.5S1.7,14,2.5,14S4,13.3,4,12.5
	S3.3,11,2.5,11z"/>
</svg>
