<svg enable-background="new 0 0 208 40" viewBox="0 0 208 40" xmlns="http://www.w3.org/2000/svg"><path d="m76.2 32.4-15.1-23.4v22.6l2.8.2v.5h-5.9v-.5l2.5-.2v-23.3l-2.5-.3v-.4h7.8l11.9 18.4v-17.7l-2.7-.3v-.4h5.9v.4l-2.5.2v24.2zm21.2-.4c1 0 1.9-.3 2.7-.9s1.4-1.4 2-2.4c.5-1 .9-2.2 1.2-3.6s.4-2.9.4-4.4c0-1.9-.2-3.6-.6-5.1s-.9-2.9-1.6-4-1.5-2-2.5-2.6-2-1-3.1-1c-1 0-1.9.3-2.7.9s-1.4 1.4-2 2.4-.9 2.2-1.2 3.6-.4 2.9-.4 4.4c0 1.9.2 3.6.6 5.1.4 1.6.9 2.9 1.6 4s1.5 2 2.5 2.6c.9.7 2 1 3.1 1zm-1.1.8c-1.8 0-3.4-.3-4.8-.9-1.5-.6-2.7-1.5-3.8-2.6-1-1.1-1.9-2.4-2.4-3.9-.6-1.5-.8-3.2-.8-5 0-3.8 1-6.8 3.1-9s5.2-3.7 9.5-4.4c1.8 0 3.4.3 4.8.9 1.5.6 2.7 1.5 3.8 2.6 1 1.1 1.9 2.4 2.4 3.9s.8 3.2.8 5c0 3.8-1 6.8-3.1 9-2 2.2-5.2 3.7-9.5 4.4zm39.4-23.4-8.5 23h-2.2l-9-23.6v22.7l2.5.2v.5h-5.7v-.5l2.5-.2v-23.2l-2.5-.3v-.4h7.5l7.9 20 7.4-20h7.2v.4l-2.6.2v23.3l2.6.2v.5h-9.4v-.5l2.3-.2zm19.5 22.1 2.5.2v.5h-9.6v-.5l2.5-.2v-23.2l-2.5-.3v-.4h9.6v.4l-2.5.2zm19.4.5c1 0 1.9-.3 2.7-.9s1.4-1.4 2-2.4c.5-1 .9-2.2 1.2-3.6s.4-2.9.4-4.4c0-1.9-.2-3.6-.6-5.1s-.9-2.9-1.6-4-1.5-2-2.5-2.6-2-1-3.1-1c-1 0-1.9.3-2.7.9s-1.4 1.4-2 2.4c-.5 1-.9 2.2-1.2 3.6s-.4 2.9-.4 4.4c0 1.9.2 3.6.6 5.1.4 1.6.9 2.9 1.6 4s1.5 2 2.5 2.6c.9.7 1.9 1 3.1 1zm-1.1.8c-1.8 0-3.4-.3-4.8-.9s-2.7-1.5-3.8-2.6-1.9-2.4-2.4-3.9c-.6-1.5-.8-3.2-.8-5 0-3.8 1-6.8 3.1-9 2-2.2 5.2-3.7 9.5-4.4 1.8 0 3.4.3 4.8.9s2.7 1.5 3.8 2.6c1 1.1 1.9 2.4 2.4 3.9.6 1.5.8 3.2.8 5 0 3.8-1 6.8-3.1 9s-5.2 3.7-9.5 4.4zm20.6-4c.7.8 1.5 1.5 2.5 2.1.9.6 2 .9 3.2.9 1.4 0 2.5-.4 3.4-1.1s1.3-1.8 1.3-3.1c0-1-.3-1.9-.8-2.7-.6-.8-1.5-1.6-2.9-2.4l-4.4-2.8c-.6-.4-1.1-.7-1.6-1.1s-.9-.8-1.3-1.2-.6-.9-.8-1.5-.3-1.2-.3-1.9c0-1.7.6-3.1 1.9-4.3s3.4-2 6.2-2.5c1.4 0 2.6.1 3.6.3s2.1.6 3.2 1v6h-.4l-2-4.8c-.6-.6-1.3-1-2-1.4s-1.5-.5-2.4-.5c-1.3 0-2.3.3-3.1 1s-1.2 1.6-1.2 2.8c0 1 .3 1.9.9 2.5.6.7 1.4 1.3 2.5 1.9l4.4 2.8c1.5.9 2.5 1.8 3.2 2.8.7.9 1 2.1 1 3.5 0 .8-.2 1.6-.5 2.4s-.8 1.5-1.5 2.1-1.6 1.3-2.7 1.8-2.5 1-4.2 1.4c-1.5 0-2.8-.2-3.9-.5-1.1-.4-2.2-.9-3.3-1.6v-6.2h.5zm-179.6-8.9v-5.4h1.6v5.4zm-11.5.8-1.5.6c-2.1-4.9-1.6-8.8-.9-11.2.8-2.7 2.1-4.2 2.2-4.3l1.2 1s-1.2 1.4-1.9 3.7c-.9 3.3-.6 6.7.9 10.2zm11.4-19.1c-3.6.1-6.8 1.5-9.4 4.3l-1.1-1c3.6-4 7.7-4.9 10.5-4.9 3 0 5.2.8 5.3.9l-.6 1.5c0-.1-2-.9-4.7-.8zm14.4 8.4c1 2.9.8 5.2.8 5.3l-1.6-.2s.2-2.1-.7-4.7c-1.2-3.4-3.5-6-7-7.6l.7-1.4c4.8 2.3 6.9 5.9 7.8 8.6zm3.7 12-1.1 1.1s-1.1-1.2-2-2.8l1.4-.7c.7 1.4 1.7 2.4 1.7 2.4zm-26.8-2.2c.6 3.3-.8 6.4-.8 6.5l-1.4-.7s1.2-2.7.7-5.6c-.6-3.8-.8-5.4-.5-7.1l1.6.3c-.4 1.5-.2 3 .4 6.6zm1.8-11.2c-1.5 1.7-2 3.4-2 3.4l-1.5-.5c0-.1.7-2 2.3-3.9 1.5-1.8 4.3-3.9 8.7-3.9 5.3 0 8.1 3.3 8.2 3.4l-1.2 1 .6-.5-.6.5c-.1-.1-2.5-2.9-7-2.9-3.1.1-5.6 1.2-7.5 3.4zm22.7 15.5-1.2 1c-.1-.2-3.3-3.9-3.9-8-.1-.8-.2-1.5-.2-2.1-.3-2.7-.4-4.4-2.2-6.1l1.1-1.1c2.1 2.1 2.3 4.3 2.6 7 .1.7.1 1.3.2 2.1.6 3.7 3.5 7.2 3.6 7.2zm-21.1-5.1c0 .2.5 4.2-1.9 10.9l-1.5-.5c2.3-6.3 1.8-10.1 1.8-10.1zm-.2-1.5-1.6.2c-.4-3.6.3-6.4 2-8.3 1.4-1.5 3.3-2.3 5.8-2.3 3.3 0 5.2 1.6 6.2 2.9 1.1 1.4 1.4 2.9 1.4 2.9l-1.6.3c0-.2-1-4.6-6-4.6-2 0-3.6.6-4.7 1.8-.9 1.1-1.9 3.2-1.5 7.1zm19.8 9.4-.9 1.3c-.2-.2-6.1-4.3-6.4-13.5h1.6c.1 3.5 1.1 6.6 2.9 9.3 1.4 1.9 2.8 2.9 2.8 2.9zm-.5 4.2-1 1.3c-8.6-6.5-8.7-14.5-8.7-14.8h1.6-.8.8s0 1.9 1 4.5c1 2.4 3 5.9 7.1 9zm-16.1-10.6c0 2.4-.6 5.1-.7 5.2l-1.5-.4s.6-2.6.6-4.8c0-.5 0-1.1-.1-1.7-.1-2.5-.2-5.3 1.4-7 .8-.9 2-1.3 3.6-1.3 3.5 0 4.6 3.6 4.7 5.5h-1.6c0-.2-.2-4-3.1-4-1.1 0-1.9.3-2.4.8-1.1 1.2-1 3.6-.9 5.8zm-.6 6.7c-1.9 7.7-6.8 12.5-7 12.7l-1.1-1.1.5.6-.5-.6s4.8-4.7 6.6-11.9zm8 6.8c-.8 2.4-2.3 5.5-2.4 5.7l-1.4-.7s2.2-4.5 2.6-6.7l.3-1.5 4.1 4.1-1.1 1.1zm-1.8-5.8c0 .3-1 6.3-4.5 11.5l-1.3-.9c3.3-4.9 4.2-10.8 4.2-10.9zm9 5.8-1 1.2c-5.3-4.2-8-8.8-9.1-11.2l1.4-.7c1 2.3 3.6 6.7 8.7 10.7zm-11.3-11.4c-.1 2.6-1.6 8-1.6 8.3l-1.5-.4c0-.1 1.4-5.6 1.6-8zm-6.2 17.2-1.3-.9s2.6-3.9 3.8-7.4l1.5.5c-1.3 3.7-3.8 7.6-4 7.8z" fill="#d4b58b"/></svg>